<?xml version="1.0" encoding="utf-8"?>
<!-- Generator: Adobe Illustrator 14.0.0, SVG Export Plug-In  -->
<!DOCTYPE svg PUBLIC "-//W3C//DTD SVG 1.1//EN" "http://www.w3.org/Graphics/SVG/1.1/DTD/svg11.dtd" [
	<!ENTITY ns_flows "http://ns.adobe.com/Flows/1.0/">
]>
<svg version="1.1"
	 xmlns="http://www.w3.org/2000/svg" xmlns:xlink="http://www.w3.org/1999/xlink" xmlns:a="http://ns.adobe.com/AdobeSVGViewerExtensions/3.0/"
	 x="0px" y="0px" width="200px" height="100px" viewBox="0 0 200 100" enable-background="new 0 0 200 100" xml:space="preserve">
<defs>
</defs>
<path fill="#FF3366" stroke="#DD1144" d="M187.621,0.5h-25.491h-5.374H27.503h-5.374h-9.75C5.819,0.5,0.5,5.819,0.5,12.38v75.24
	c0,6.561,5.319,11.88,11.88,11.88h9.75h5.374h129.252h5.374h25.491c6.561,0,11.88-5.319,11.88-11.88V12.38
	C199.5,5.819,194.181,0.5,187.621,0.5z M196.5,84.2c0,6.782-5.518,12.3-12.3,12.3h-22.071h-5.374H27.503h-5.374H15.8
	c-6.782,0-12.3-5.518-12.3-12.3V15.8c0-6.782,5.518-12.3,12.3-12.3h6.33h5.374h129.252h5.374h22.071c6.782,0,12.3,5.518,12.3,12.3
	V84.2z"/>
<path fill="#FFFFFF" stroke="#FFFFFF" d="M114.238,6.5H27.503h-5.374H15.8c-5.128,0-9.3,4.172-9.3,9.3v68.4
	c0,5.128,4.172,9.3,9.3,9.3h6.329h5.374h55.068L114.238,6.5z"/>
<path fill="#FFFFFF" stroke="#FFFFFF" d="M184.201,6.5h-22.076h-5.37h-39.325l-31.665,87h70.99h5.37h22.076
	c5.128,0,9.3-4.172,9.3-9.3V15.8C193.5,10.672,189.329,6.5,184.201,6.5z"/>
<path fill="#FF99B2" stroke="#EE88A1" d="M114.238,6.5H27.503h-5.374H15.8c-5.128,0-9.3,4.172-9.3,9.3v68.4
	c0,5.128,4.172,9.3,9.3,9.3h6.33h5.374h55.068L114.238,6.5z"/>
<path fill="#FF99B2" stroke="#EE88A1" d="M184.201,6.5h-22.076h-5.37h-39.325l-31.666,87h70.991h5.37h22.076
	c5.128,0,9.3-4.172,9.3-9.3V15.8C193.5,10.672,189.329,6.5,184.201,6.5z"/>
<path d="M85.546,68.838l-2.992,0.209c-0.828-11.904-5.954-19.801-8.418-23.596l-0.33-0.51c-1.753-2.719-3.146-6.001-4.911-10.158
	c-0.694-1.636-1.441-3.395-2.281-5.283c-1.552-3.487-2.45-4.389-3.052-4.582c0.147,1.154,0.721,3.769,2.594,9.688l0.165,0.525
	c2.283,7.344,1.7,7.955,1.136,8.545c-1.236,1.293-2.966-0.069-3.704-0.652c-0.747-0.588-1.42-1.229-1.448-1.256l-0.178-0.17
	l-0.114-0.218c-0.059-0.112-5.923-11.282-8.581-15.193c-2.57-3.781-3.522-3.938-4.018-3.771c-0.011,0.585,0.518,2.035,1.162,3.134
	c10.393,17.355,9.495,18.53,8.841,19.388c-0.43,0.563-1.068,0.87-1.756,0.853c-1.585-0.039-3.127-1.91-3.93-3.066
	c-0.575-0.688-6.791-8.127-10.248-11.651c-1.706-1.739-4.784-4.875-6.27-4.714c0.303,1.411,3.037,5.011,4.254,6.612l0.79,1.044
	c0.585,0.781,1.52,1.927,2.603,3.252c6.767,8.289,8.534,10.955,7.201,12.662c-0.386,0.492-0.945,0.799-1.582,0.865
	c-2.111,0.223-4.895-2.031-11.548-7.607c-4.691-3.932-8.168-4.975-9.433-5.001c0.245,0.394,0.705,0.96,1.067,1.406
	c0.202,0.249,0.413,0.509,0.627,0.781c0.792,1.006,6.924,6.359,11.4,10.267c3.557,3.105,6.916,6.038,8.35,7.408
	c4.001,3.823,3.877,8.287,2.068,10.815c-1.654,2.302-3.222,2.044-5.603,1.651c-0.61-0.101-1.334-0.22-2.211-0.333
	c-4.248-0.546-9.178,0.479-10.573,1.396c-0.062,0.041-0.079,0.066-0.081,0.065c-0.011,0.121,0.141,0.468,0.378,0.831
	c4.549-0.322,10.221,0.774,16.882,3.266c1.622,0.606,11.259,1.499,16.952,1.92l-0.22,2.992c-2.531-0.188-15.281-1.166-17.783-2.103
	c-8.261-3.089-13.443-3.345-16.336-3.016l-0.744,0.084l-0.515-0.544c-0.301-0.316-1.789-1.991-1.577-3.816
	c0.104-0.899,0.588-1.655,1.396-2.187c2.362-1.553,8.251-2.424,12.603-1.864c0.919,0.118,1.678,0.242,2.316,0.348
	c2.113,0.349,2.114,0.351,2.675-0.437c1.08-1.509,1.008-4.313-1.701-6.9c-1.385-1.323-4.719-4.234-8.249-7.316
	c-6.536-5.706-10.888-9.532-11.785-10.674c-0.204-0.259-0.405-0.506-0.598-0.744c-1.301-1.601-2.92-3.594-1.148-5.448
	c2.022-2.117,7.942-0.031,13.769,4.853c2.769,2.32,5.805,4.865,7.718,6.124c-1.479-2.262-4.414-5.856-6.04-7.847
	c-1.104-1.352-2.058-2.52-2.68-3.352l-0.777-1.027c-3.124-4.111-5.298-7.188-4.822-9.334c0.161-0.724,0.61-1.313,1.265-1.66
	c3.064-1.617,6.254,1.256,10.104,5.181c2.817,2.872,7.26,8.083,9.331,10.542c-1.728-3.403-4.421-8.196-6.962-12.437
	c-0.491-0.84-2.026-3.691-1.436-5.665c0.217-0.726,0.682-1.28,1.339-1.606c3.332-1.648,5.786,1.415,8.016,4.692
	c2.504,3.684,7.492,13.086,8.56,15.113c-0.264-1.052-0.617-2.31-1.016-3.592l-0.161-0.511c-3.237-10.231-3.023-11.771-2.408-12.72
	c0.296-0.45,0.755-0.738,1.271-0.796c0.097-0.011,0.195-0.029,0.296-0.046c2.457-0.428,4.285,0.455,6.9,6.332
	c0.848,1.904,1.602,3.679,2.302,5.331c1.708,4.023,3.058,7.201,4.671,9.703l0.325,0.503C79.253,47.824,84.665,56.161,85.546,68.838
	L85.546,68.838z"/>
<path d="M33.581,72.258c0.104-0.899,0.588-1.655,1.396-2.187c0.43-0.282,0.979-0.541,1.61-0.774
	c0.003-0.001,0.005-0.003,0.007-0.004c0.003-0.001,0.009-0.002,0.012-0.003c2.846-1.043,7.421-1.54,10.974-1.083
	c0.919,0.118,1.678,0.242,2.316,0.348c2.113,0.349,2.114,0.351,2.676-0.437c1.079-1.509,1.007-4.313-1.702-6.9
	c-1.385-1.323-4.719-4.234-8.249-7.316c-1.181-1.03-2.288-1.998-3.318-2.901H14.455v23.892h19.82
	C33.851,74.184,33.466,73.247,33.581,72.258z"/>
<path fill="none" stroke="#000000" stroke-width="3" d="M131.103,69.65c0,0,1.53-9.184,0.765-9.336c0,0-9.489-7.807-9.336-19.592
	c0.152-11.786,7.347-20.303,18.367-21.123c11.02-0.82,22.04,2.755,25.867,7.806c3.826,5.052,5.051,13.011,4.897,19.286
	c0,0,3.367,5.97,5.051,7.652c1.684,1.685,0.307,2.755-1.684,3.367c-1.989,0.612-1.53,1.378-1.224,2.297
	c0.306,0.918,0.765,2.448-1.531,2.602c0,0,0.919,1.225,0.919,1.99c0,0.765-1.531,0.765-1.072,2.448c0.46,1.685,1.531,4.439,0,5.816
	c-1.53,1.378-8.265,1.225-9.948,2.144c-1.684,0.918-4.745,1.53-4.592,5.51"/>
<path fill="none" stroke="#000000" stroke-width="3" d="M128.127,35.031c0,0,0.891-6.584,6.678-5.406c0,0,3.783-7.503,7.79-1.716
	c0,0,8.013-8.613,10.683-2.192c0,0,8.235-0.924,8.235,6.644c0,0,6.01,7.79-1.112,8.457c0,0-3.784,4.674-7.123,2.004
	c0,0-5.785,6.677-8.234,2.003c0,0-6.724,5.342-7.146,0c0,0-8.212,2.003-6.876-2.894C131.022,41.931,122.787,38.593,128.127,35.031z"
	/>
</svg>
