<?xml version="1.0" encoding="utf-8"?>
<!-- Generator: Adobe Illustrator 14.0.0, SVG Export Plug-In  -->
<!DOCTYPE svg PUBLIC "-//W3C//DTD SVG 1.0//EN" "http://www.w3.org/TR/2001/REC-SVG-20010904/DTD/svg10.dtd" [
	<!ENTITY ns_flows "http://ns.adobe.com/Flows/1.0/">
]>
<svg version="1.0"
	 xmlns="http://www.w3.org/2000/svg" xmlns:xlink="http://www.w3.org/1999/xlink" xmlns:a="http://ns.adobe.com/AdobeSVGViewerExtensions/3.0/"
	 x="0px" y="0px" width="597px" height="350px" viewBox="-22.566 -24.554 597 350" enable-background="new -22.566 -24.554 597 350"
	 xml:space="preserve">
<defs>
</defs>
<line fill="none" stroke="#E6E7E8" x1="128.919" y1="271.323" x2="128.919" y2="17.623"/>
<line fill="none" stroke="#E6E7E8" x1="227.941" y1="271.323" x2="227.941" y2="17.623"/>
<line fill="none" stroke="#E6E7E8" x1="326.964" y1="271.323" x2="326.964" y2="17.623"/>
<line fill="none" stroke="#E6E7E8" x1="425.984" y1="271.323" x2="425.984" y2="17.623"/>
<line fill="none" stroke="#E6E7E8" x1="525.009" y1="271.323" x2="525.009" y2="17.623"/>
<line fill="none" stroke="#E6E7E8" x1="79.408" y1="271.322" x2="79.408" y2="17.623"/>
<line fill="none" stroke="#E6E7E8" x1="178.43" y1="271.323" x2="178.43" y2="17.623"/>
<line fill="none" stroke="#E6E7E8" x1="277.453" y1="271.322" x2="277.453" y2="17.622"/>
<line fill="none" stroke="#E6E7E8" x1="376.477" y1="271.322" x2="376.477" y2="17.622"/>
<line fill="none" stroke="#E6E7E8" x1="475.494" y1="271.322" x2="475.494" y2="17.622"/>
<line fill="none" stroke="#E6E7E8" x1="29.896" y1="17.623" x2="525.009" y2="17.623"/>
<line fill="none" stroke="#E6E7E8" x1="29.896" y1="40.688" x2="525.009" y2="40.688"/>
<line fill="none" stroke="#E6E7E8" x1="29.896" y1="86.812" x2="525.009" y2="86.812"/>
<line fill="none" stroke="#E6E7E8" x1="29.896" y1="109.878" x2="525.009" y2="109.878"/>
<line fill="none" stroke="#E6E7E8" x1="29.896" y1="132.938" x2="525.009" y2="132.938"/>
<line fill="none" stroke="#E6E7E8" x1="29.896" y1="156.001" x2="525.009" y2="156.001"/>
<line fill="none" stroke="#E6E7E8" x1="29.896" y1="179.066" x2="525.009" y2="179.066"/>
<line fill="none" stroke="#E6E7E8" x1="29.896" y1="202.129" x2="525.009" y2="202.129"/>
<line fill="none" stroke="#0071BC" x1="29.896" y1="225.192" x2="525.009" y2="225.192"/>
<line fill="none" stroke="#E6E7E8" x1="29.896" y1="63.748" x2="525.009" y2="63.748"/>
<line fill="none" stroke="#E6E7E8" x1="29.896" y1="248.258" x2="525.009" y2="248.258"/>
<line fill="none" stroke="#E6E7E8" x1="29.896" y1="271.323" x2="525.009" y2="271.323"/>
<line fill="none" stroke="#E6E7E8" x1="29.896" y1="271.323" x2="29.896" y2="17.623"/>
<polygon fill="#303030" points="527.643,271.27 527.643,260.889 536.64,266.082 545.629,271.27 536.64,276.466 527.643,281.659 "/>
<polygon fill="#303030" points="29.896,17.987 19.512,17.987 24.704,8.994 29.896,0 35.088,8.994 40.28,17.987 "/>
<g>
	<path fill="#C1272D" d="M5.111,14.819l-0.947,3.413H1.066L5.111,4.934h3.946L13.2,18.232H9.945l-1.026-3.413H5.111z M8.485,12.569
		L7.656,9.748C7.419,8.959,7.183,7.973,6.985,7.184h-0.04C6.749,7.973,6.551,8.979,6.334,9.748l-0.789,2.821H8.485z"/>
</g>
<g>
	<path fill="#C1272D" d="M531.742,287.772c0.79-0.138,2.368-0.276,3.887-0.276c1.835,0,2.96,0.178,3.946,0.75
		c0.928,0.493,1.578,1.4,1.578,2.624c0,1.164-0.69,2.249-2.189,2.821v0.039c1.519,0.395,2.644,1.559,2.644,3.256
		c0,1.223-0.553,2.17-1.381,2.841c-0.967,0.77-2.585,1.203-5.229,1.203c-1.479,0-2.585-0.099-3.256-0.197V287.772z M534.721,292.862
		h0.986c1.599,0,2.427-0.65,2.427-1.638c0-1.006-0.77-1.538-2.131-1.538c-0.671,0-1.045,0.039-1.282,0.078V292.862z
		 M534.721,298.762c0.296,0.039,0.651,0.039,1.164,0.039c1.361,0,2.564-0.532,2.564-1.933c0-1.322-1.203-1.855-2.702-1.855h-1.026
		V298.762z"/>
</g>
<circle fill="none" stroke="#662D91" stroke-width="2" cx="79.363" cy="40.688" r="6.578"/>
<circle fill="none" stroke="#662D91" stroke-width="2" cx="128.919" cy="132.938" r="6.578"/>
<circle fill="none" stroke="#662D91" stroke-width="2" cx="178.431" cy="163.692" r="6.578"/>
<circle fill="none" stroke="#662D91" stroke-width="2" cx="227.942" cy="179.068" r="6.578"/>
<circle fill="none" stroke="#662D91" stroke-width="2" cx="277.452" cy="188.293" r="6.577"/>
<circle fill="none" stroke="#662D91" stroke-width="2" cx="326.966" cy="194.445" r="6.577"/>
<circle fill="none" stroke="#662D91" stroke-width="2" cx="376.477" cy="198.837" r="6.578"/>
<circle fill="none" stroke="#662D91" stroke-width="2" cx="425.984" cy="202.132" r="6.577"/>
<circle fill="none" stroke="#662D91" stroke-width="2" cx="475.494" cy="204.695" r="6.578"/>
<g>
	<path fill="#C1272D" d="M23.272,231.641c-0.532,0.257-1.795,0.572-3.393,0.572c-4.597,0-6.965-2.88-6.965-6.668
		c0-4.538,3.236-7.044,7.261-7.044c1.559,0,2.742,0.296,3.275,0.592l-0.631,2.368c-0.592-0.257-1.44-0.494-2.525-0.494
		c-2.368,0-4.222,1.44-4.222,4.4c0,2.663,1.579,4.34,4.242,4.34c0.927,0,1.914-0.177,2.525-0.434L23.272,231.641z"/>
</g>
<circle fill="#662D91" cx="79.363" cy="40.688" r="2.467"/>
<circle fill="#662D91" cx="128.918" cy="132.938" r="2.467"/>
<circle fill="#662D91" cx="178.43" cy="163.692" r="2.467"/>
<circle fill="#662D91" cx="227.942" cy="179.068" r="2.467"/>
<circle fill="#662D91" cx="277.452" cy="188.293" r="2.467"/>
<circle fill="#662D91" cx="475.494" cy="204.695" r="2.466"/>
<circle fill="#662D91" cx="425.984" cy="202.132" r="2.467"/>
<circle fill="#662D91" cx="376.477" cy="198.837" r="2.466"/>
<circle fill="#662D91" cx="326.966" cy="194.445" r="2.467"/>
<line fill="none" stroke="#9E005D" x1="29.896" y1="186.707" x2="525.009" y2="186.707"/>
<line fill="none" stroke="#9E005D" x1="29.896" y1="263.677" x2="525.007" y2="263.677"/>
<polyline fill="none" stroke="#303030" stroke-width="3" points="29.896,10.249 29.896,271.27 532.385,271.27 "/>
<path d="M530.44,206.735c-1.379,0-1.578,2.16-1.598,3.762c0,1.307,0.08,2.669,0.157,4.069c0.08,1.358,0.157,2.762,0.157,4.115
	c0,5.076-1.241,6.881-2.858,6.881h-0.414v-2.765h0.336c1.104-0.047,1.578-1.553,1.578-4.365c0-1.205-0.08-2.411-0.138-3.609
	c-0.08-1.261-0.159-2.51-0.159-3.867c-0.02-3.216,0.553-4.874,1.44-5.474v-0.103c-0.888-0.601-1.44-2.207-1.44-5.417
	c0-1.357,0.079-2.56,0.159-3.82c0.058-1.201,0.138-2.406,0.138-3.563c0-2.708-0.414-4.267-1.578-4.315h-0.336v-2.759h0.396
	c1.676,0,2.877,1.958,2.877,6.579c0,1.351-0.077,2.76-0.157,4.214c-0.077,1.354-0.157,2.759-0.157,4.162
	c0,1.758,0.197,3.714,1.598,3.714V206.735z"/>
<g>
	<path fill="#C1272D" d="M533.686,197.86c1.105-0.177,2.546-0.296,4.045-0.296c2.545,0,4.202,0.474,5.465,1.42
		c1.382,1.026,2.249,2.664,2.249,5.012c0,2.545-0.927,4.301-2.189,5.386c-1.401,1.164-3.552,1.716-6.155,1.716
		c-1.559,0-2.684-0.099-3.414-0.197V197.86z M536.685,208.692c0.257,0.059,0.69,0.059,1.046,0.059
		c2.742,0.02,4.538-1.479,4.538-4.656c0-2.762-1.618-4.222-4.223-4.222c-0.65,0-1.104,0.059-1.361,0.118V208.692z"/>
</g>
<g>
	<path fill="#C1272D" d="M533.686,237.906c1.105-0.178,2.546-0.296,4.045-0.296c2.545,0,4.202,0.474,5.465,1.421
		c1.382,1.025,2.249,2.663,2.249,5.011c0,2.546-0.927,4.302-2.189,5.387c-1.401,1.164-3.552,1.716-6.155,1.716
		c-1.559,0-2.684-0.099-3.414-0.197V237.906z M536.685,248.738c0.257,0.059,0.69,0.059,1.046,0.059
		c2.742,0.02,4.538-1.479,4.538-4.656c0-2.762-1.618-4.222-4.223-4.222c-0.65,0-1.104,0.059-1.361,0.118V248.738z"/>
</g>
<g>
	<path d="M79.364,279.987h-0.04l-2.229,1.203l-0.335-1.322l2.802-1.499h1.479v12.824h-1.677V279.987z"/>
	<path d="M127.548,291.193v-1.065l1.361-1.322c3.275-3.117,4.775-4.774,4.775-6.708c0-1.302-0.612-2.505-2.525-2.505
		c-1.164,0-2.131,0.592-2.723,1.085l-0.553-1.224c0.868-0.729,2.15-1.302,3.611-1.302c2.762,0,3.926,1.894,3.926,3.729
		c0,2.367-1.716,4.281-4.419,6.886l-1.006,0.947v0.039h5.741v1.44H127.548z"/>
	<path d="M175.732,289.221c0.493,0.296,1.618,0.789,2.841,0.789c2.21,0,2.92-1.401,2.9-2.486c-0.02-1.795-1.638-2.564-3.314-2.564
		h-0.967v-1.303h0.967c1.263,0,2.861-0.65,2.861-2.17c0-1.025-0.651-1.934-2.25-1.934c-1.026,0-2.012,0.454-2.564,0.849
		l-0.474-1.263c0.69-0.493,1.993-0.986,3.374-0.986c2.525,0,3.67,1.499,3.67,3.058c0,1.342-0.809,2.467-2.368,3.038v0.04
		c1.579,0.296,2.841,1.479,2.861,3.275c0,2.052-1.618,3.847-4.676,3.847c-1.44,0-2.703-0.453-3.334-0.868L175.732,289.221z"/>
	<path d="M228.454,291.193v-3.512h-5.958v-1.125l5.722-8.188h1.874v7.971h1.795v1.342h-1.795v3.512H228.454z M228.454,286.34v-4.281
		c0-0.671,0.02-1.342,0.059-2.013h-0.059c-0.395,0.75-0.71,1.303-1.065,1.895l-3.137,4.36v0.039H228.454z"/>
	<path d="M282.695,279.829h-4.893l-0.493,3.295c0.296-0.039,0.572-0.06,1.046-0.06c1.006,0,1.973,0.197,2.762,0.69
		c1.006,0.553,1.835,1.678,1.835,3.275c0,2.506-1.993,4.38-4.774,4.38c-1.401,0-2.565-0.395-3.196-0.789l0.434-1.322
		c0.533,0.316,1.579,0.711,2.762,0.711c1.618,0,3.038-1.065,3.019-2.782c0-1.657-1.125-2.821-3.67-2.821
		c-0.75,0-1.322,0.06-1.795,0.118l0.829-6.155h6.136V279.829z"/>
	<path d="M330.129,279.593c-0.355-0.021-0.809,0.02-1.302,0.099c-2.742,0.434-4.163,2.406-4.459,4.537h0.04
		c0.612-0.828,1.697-1.499,3.117-1.499c2.269,0,3.867,1.657,3.867,4.144c0,2.367-1.598,4.537-4.281,4.537
		c-2.723,0-4.518-2.131-4.518-5.465c0-2.525,0.888-4.519,2.17-5.781c1.065-1.045,2.486-1.696,4.104-1.894
		c0.513-0.079,0.947-0.099,1.263-0.099V279.593z M329.636,286.991c0-1.835-1.046-2.94-2.644-2.94c-1.045,0-2.032,0.632-2.505,1.579
		c-0.099,0.197-0.178,0.434-0.178,0.749c0.02,2.111,1.006,3.689,2.841,3.689C328.63,290.068,329.636,288.826,329.636,286.991z"/>
	<path d="M378.906,278.369v1.145l-5.583,11.68h-1.795l5.563-11.345v-0.039h-6.274v-1.44H378.906z"/>
	<path d="M424.901,284.446c-1.44-0.671-2.053-1.776-2.053-2.881c0-2.032,1.717-3.413,3.985-3.413c2.486,0,3.749,1.539,3.749,3.156
		c0,1.085-0.553,2.27-2.131,2.999v0.06c1.599,0.631,2.585,1.775,2.585,3.314c0,2.249-1.914,3.729-4.36,3.729
		c-2.684,0-4.301-1.578-4.301-3.452c0-1.618,0.966-2.782,2.545-3.453L424.901,284.446z M429.281,287.859
		c0-1.539-1.086-2.309-2.821-2.802c-1.5,0.434-2.309,1.44-2.309,2.663c-0.06,1.282,0.927,2.427,2.564,2.427
		C428.274,290.147,429.281,289.181,429.281,287.859z M424.505,281.447c-0.02,1.282,0.967,1.973,2.447,2.367
		c1.104-0.375,1.953-1.164,1.953-2.328c0-1.025-0.612-2.091-2.171-2.091C425.295,279.396,424.505,280.342,424.505,281.447z"/>
	<path d="M475.491,289.97c0.375,0.04,0.81,0,1.401-0.059c1.006-0.139,1.953-0.533,2.684-1.243c0.848-0.77,1.46-1.895,1.696-3.394
		h-0.06c-0.71,0.868-1.735,1.361-3.038,1.361c-2.288,0-3.769-1.736-3.769-3.926c0-2.427,1.756-4.558,4.38-4.558
		s4.242,2.11,4.242,5.426c0,2.801-0.947,4.774-2.21,5.997c-0.986,0.967-2.348,1.559-3.729,1.717
		c-0.632,0.099-1.184,0.118-1.599,0.099V289.97z M476.123,282.611c0,1.598,0.967,2.723,2.466,2.723c1.164,0,2.072-0.572,2.525-1.342
		c0.099-0.178,0.158-0.355,0.158-0.651c0-2.189-0.809-3.867-2.644-3.867C477.168,279.474,476.123,280.776,476.123,282.611z"/>
</g>
<path d="M530.44,246.421c-1.379,0-1.578,2.16-1.598,3.763c0,1.307,0.08,2.669,0.157,4.068c0.08,1.359,0.157,2.763,0.157,4.116
	c0,5.076-1.241,6.881-2.858,6.881h-0.414v-2.766h0.336c1.104-0.046,1.578-1.553,1.578-4.364c0-1.206-0.08-2.412-0.138-3.61
	c-0.08-1.26-0.159-2.51-0.159-3.866c-0.02-3.217,0.553-4.874,1.44-5.475v-0.103c-0.888-0.601-1.44-2.206-1.44-5.416
	c0-1.357,0.079-2.56,0.159-3.82c0.058-1.201,0.138-2.405,0.138-3.563c0-2.707-0.414-4.267-1.578-4.314h-0.336v-2.759h0.396
	c1.676,0,2.877,1.957,2.877,6.578c0,1.351-0.077,2.761-0.157,4.214c-0.077,1.354-0.157,2.759-0.157,4.162
	c0,1.759,0.197,3.715,1.598,3.715V246.421z"/>
<g>
	<path d="M4.462,81.835H4.424l-2.136,1.153l-0.321-1.267l2.685-1.437h1.418v12.289H4.462V81.835z"/>
	<path d="M10.684,91.59c0-0.681,0.473-1.191,1.134-1.191c0.662,0,1.116,0.492,1.116,1.191c0,0.68-0.454,1.191-1.153,1.191
		C11.138,92.781,10.684,92.271,10.684,91.59z"/>
	<path d="M22.652,86.296c0,4.178-1.569,6.485-4.273,6.485c-2.401,0-4.046-2.25-4.083-6.314c0-4.141,1.796-6.39,4.292-6.39
		C21.158,80.077,22.652,82.383,22.652,86.296z M15.978,86.486c0,3.195,0.983,5.01,2.496,5.01c1.683,0,2.496-1.985,2.496-5.124
		c0-3.025-0.756-5.01-2.496-5.01C17.037,81.362,15.978,83.139,15.978,86.486z"/>
	<path d="M9.037,177.064c0,4.178-1.569,6.485-4.273,6.485c-2.401,0-4.046-2.25-4.083-6.314c0-4.141,1.796-6.39,4.292-6.39
		C7.543,170.845,9.037,173.151,9.037,177.064z M2.363,177.254c0,3.195,0.983,5.01,2.496,5.01c1.683,0,2.496-1.985,2.496-5.124
		c0-3.025-0.756-5.01-2.496-5.01C3.422,172.13,2.363,173.907,2.363,177.254z"/>
	<path d="M10.684,182.358c0-0.681,0.473-1.191,1.134-1.191c0.662,0,1.116,0.492,1.116,1.191c0,0.681-0.454,1.191-1.153,1.191
		C11.138,183.549,10.684,183.039,10.684,182.358z"/>
	<path d="M21.801,172.452h-4.688l-0.473,3.157c0.284-0.038,0.548-0.057,1.002-0.057c0.964,0,1.891,0.189,2.647,0.662
		c0.964,0.529,1.758,1.607,1.758,3.138c0,2.401-1.91,4.197-4.575,4.197c-1.342,0-2.458-0.378-3.063-0.756l0.416-1.267
		c0.51,0.303,1.513,0.681,2.647,0.681c1.55,0,2.911-1.021,2.893-2.666c0-1.588-1.078-2.704-3.517-2.704
		c-0.718,0-1.267,0.057-1.72,0.113l0.794-5.898h5.879V172.452z"/>
	<path d="M9.037,267.833c0,4.178-1.569,6.484-4.273,6.484c-2.401,0-4.046-2.25-4.083-6.314c0-4.141,1.796-6.391,4.292-6.391
		C7.543,261.612,9.037,263.919,9.037,267.833z M2.363,268.021c0,3.195,0.983,5.011,2.496,5.011c1.683,0,2.496-1.985,2.496-5.124
		c0-3.024-0.756-5.01-2.496-5.01C3.422,262.898,2.363,264.676,2.363,268.021z"/>
	<path d="M10.684,273.126c0-0.681,0.473-1.19,1.134-1.19c0.662,0,1.116,0.491,1.116,1.19c0,0.681-0.454,1.191-1.153,1.191
		C11.138,274.317,10.684,273.807,10.684,273.126z"/>
	<path d="M22.652,267.833c0,4.178-1.569,6.484-4.273,6.484c-2.401,0-4.046-2.25-4.083-6.314c0-4.141,1.796-6.391,4.292-6.391
		C21.158,261.612,22.652,263.919,22.652,267.833z M15.978,268.021c0,3.195,0.983,5.011,2.496,5.011c1.683,0,2.496-1.985,2.496-5.124
		c0-3.024-0.756-5.01-2.496-5.01C17.037,262.898,15.978,264.676,15.978,268.021z"/>
</g>
</svg>
